<svg xmlns="http://www.w3.org/2000/svg" width="1200" height="300" viewBox="0 0 1200 300">
  <defs>
    <linearGradient id="signal" x1="0%" y1="0%" x2="100%" y2="100%">
      <stop offset="0%" stop-color="#1EC8FF"/>
      <stop offset="100%" stop-color="#5865F2"/>
    </linearGradient>
    <linearGradient id="core" x1="0%" y1="0%" x2="100%" y2="100%">
      <stop offset="0%" stop-color="#FF8A7A"/>
      <stop offset="100%" stop-color="#FF5F6D"/>
    </linearGradient>
  </defs>

  <g transform="translate(74,52)">
    <path d="M48 0h92c36 0 64 28 64 64v32c0 36-28 64-64 64H94l-46 38c-8 6-20 1-20-9v-29C11 154 0 137 0 116V64C0 28 28 0 64 0h-16z" fill="#081120"/>
    <path d="M48 12h92c29 0 52 23 52 52v32c0 29-23 52-52 52H90l-50 40v-40H36c-13 0-24-11-24-24V64c0-29 23-52 52-52h-16z" fill="none" stroke="url(#signal)" stroke-width="8" stroke-linejoin="round"/>
    <path d="M66 44v78" fill="none" stroke="url(#signal)" stroke-width="16" stroke-linecap="round"/>
    <path d="M66 44h40c28 0 44 16 44 39 0 24-16 40-44 40H80" fill="none" stroke="url(#signal)" stroke-width="16" stroke-linecap="round" stroke-linejoin="round"/>
    <circle cx="118" cy="84" r="10" fill="url(#core)"/>
    <circle cx="118" cy="84" r="4" fill="#081120"/>
    <path d="M182 38c10 0 18 8 18 18" fill="none" stroke="#FF6B6B" stroke-width="5" stroke-linecap="round" opacity="0.7"/>
    <path d="M194 24c18 0 32 14 32 32" fill="none" stroke="#FF6B6B" stroke-width="5" stroke-linecap="round" opacity="0.35"/>
  </g>

  <text
    x="362"
    y="160"
    font-family="Inter, -apple-system, BlinkMacSystemFont, 'Segoe UI', Helvetica, Arial, sans-serif"
    font-size="120"
    font-weight="800"
    letter-spacing="-3"
    fill="#081120"
  >
    PICOBOT
  </text>
  <text
    x="366"
    y="208"
    font-family="Inter, -apple-system, BlinkMacSystemFont, 'Segoe UI', Helvetica, Arial, sans-serif"
    font-size="30"
    font-weight="600"
    letter-spacing="4"
    fill="#51617A"
  >
    YOUR AI AGENT THAT WORKS WHERE YOU WORK
  </text>
</svg>
