<svg xmlns="http://www.w3.org/2000/svg" width="400" height="400" viewBox="0 0 400 400">
  <defs>
    <linearGradient id="signal" x1="0%" y1="0%" x2="100%" y2="100%">
      <stop offset="0%" stop-color="#1EC8FF"/>
      <stop offset="100%" stop-color="#5865F2"/>
    </linearGradient>
    <linearGradient id="core" x1="0%" y1="0%" x2="100%" y2="100%">
      <stop offset="0%" stop-color="#FF8A7A"/>
      <stop offset="100%" stop-color="#FF5F6D"/>
    </linearGradient>
    <radialGradient id="glow" cx="50%" cy="40%" r="60%">
      <stop offset="0%" stop-color="#14294D"/>
      <stop offset="100%" stop-color="#081120"/>
    </radialGradient>
  </defs>

  <rect width="400" height="400" rx="56" fill="url(#glow)"/>
  <circle cx="200" cy="200" r="142" fill="none" stroke="#173359" stroke-width="4" opacity="0.4"/>
  <circle cx="200" cy="200" r="116" fill="none" stroke="#173359" stroke-width="3" opacity="0.22"/>
  <path d="M120 90h118c52 0 92 40 92 92v36c0 52-40 92-92 92h-60l-54 44c-10 8-24 1-24-11v-33c-29-8-50-36-50-68v-60c0-52 40-92 92-92h-22z" fill="none" stroke="url(#signal)" stroke-width="14" stroke-linejoin="round"/>
  <path d="M150 146v102" fill="none" stroke="url(#signal)" stroke-width="24" stroke-linecap="round"/>
  <path d="M150 146h54c36 0 60 22 60 52 0 34-24 56-60 56h-34" fill="none" stroke="url(#signal)" stroke-width="24" stroke-linecap="round" stroke-linejoin="round"/>
  <circle cx="222" cy="198" r="15" fill="url(#core)"/>
  <circle cx="222" cy="198" r="6" fill="#081120"/>
  <path d="M292 110c14 0 24 10 24 24" fill="none" stroke="#FF6B6B" stroke-width="8" stroke-linecap="round" opacity="0.8"/>
  <path d="M308 88c27 0 46 19 46 46" fill="none" stroke="#FF6B6B" stroke-width="8" stroke-linecap="round" opacity="0.35"/>
  <text x="200" y="360" text-anchor="middle" font-family="Inter, system-ui, sans-serif" font-size="34" font-weight="700" letter-spacing="6" fill="#B4C6E4">PICOBOT</text>
</svg>
